<?xml version="1.0" encoding="utf-8"?>
<!-- Generator: Adobe Illustrator 21.0.2, SVG Export Plug-In . SVG Version: 6.00 Build 0)  -->
<svg version="1.1" id="Layer_1" xmlns="http://www.w3.org/2000/svg" xmlns:xlink="http://www.w3.org/1999/xlink" x="0px" y="0px"
	 viewBox="0 0 67.5 57.3" style="enable-background:new 0 0 67.5 57.3;" xml:space="preserve">
<title>creative-design</title>
<g id="Layer_2">
	<g id="Layer_1-2">
		<path d="M3.5,3v51.4H64V3H3.5z M62.5,4.4v5.7H4.9V4.4H62.5z M4.9,52.9V11.5h57.8v41.5H4.9z"/>
		<rect x="56.2" y="6.6" width="1.4" height="1.4"/>
		<rect x="52.7" y="6.6" width="1.4" height="1.4"/>
		<rect x="49.2" y="6.6" width="1.4" height="1.4"/>
		<rect x="9.3" y="6.6" width="35.6" height="1.4"/>
		<polygon points="54,23.8 57,26.5 54,29.4 54.9,30.4 59,26.5 54.9,22.7 		"/>
		<polygon points="12.5,22.7 8.4,26.5 12.5,30.4 13.4,29.4 10.4,26.5 13.4,23.8 		"/>
		<path d="M50.4,15.8H17.4v21.4h33.1V15.8z M49,17.2v15.6l-7.2-6.9l-3.3,3.2l-4.7-5.4l-8.3,8.1l-3.3-3.2l-3.3,3.1V17.2L49,17.2z
			 M18.7,35.9v-2.1l3.3-3.1l3.3,3.2l8.3-7.9l4.7,5.4l3.4-3.3l7.2,6.9V36H18.7V35.9z"/>
		<path d="M27.4,23.3c0-1.3-1-2.3-2.3-2.3c-1.3,0-2.3,1-2.3,2.3c0,1.3,1,2.3,2.3,2.3l0,0C26.4,25.6,27.4,24.6,27.4,23.3
			C27.4,23.3,27.4,23.3,27.4,23.3z M24.3,23.3c0-0.5,0.4-0.9,0.9-0.9s0.9,0.4,0.9,0.9s-0.4,0.9-0.9,0.9S24.3,23.8,24.3,23.3z"/>
		<rect x="24.5" y="19" width="1.4" height="1.3"/>
		<rect x="21.9" y="20.1" transform="matrix(0.707 -0.7072 0.7072 0.707 -8.059 22.0825)" width="1.4" height="1.3"/>
		<rect x="20.9" y="22.6" width="1.3" height="1.4"/>
		<rect x="22" y="25.2" transform="matrix(0.7072 -0.707 0.707 0.7072 -11.7003 23.5761)" width="1.3" height="1.4"/>
		<rect x="24.5" y="26.3" width="1.4" height="1.3"/>
		<rect x="27.1" y="25.2" transform="matrix(0.7071 -0.7071 0.7071 0.7071 -10.1657 27.2218)" width="1.4" height="1.3"/>
		<rect x="28.2" y="22.6" width="1.3" height="1.4"/>
		<rect x="27.1" y="20.1" transform="matrix(0.7071 -0.7071 0.7071 0.7071 -6.5885 25.6942)" width="1.3" height="1.4"/>
		<path d="M49.4,43.4c-4.4-1.4-8.9-2.1-13.4-2.2c-4.1,0-6.4,0.8-7.4,1.4c-0.5-0.6-1.1-1.1-1.8-1.5c-0.6-0.4-1.4-0.6-2.1-0.6
			c-1.5,0.1-3,0.8-4,2c-0.4,0.4-1,0.6-1.6,0.6c-0.3,0-0.7-0.1-1-0.2l-0.9-0.4v1c0.1,2.9,2.2,5.4,5,6c0.7,0.2,1.3,0.3,2,0.3
			c1.7,0,3.4-0.9,4.4-2.3c2.4,0.9,4.9,1.4,7.5,1.3c4.5-0.1,9-0.8,13.3-2.1c0.7-0.2,1.2-0.9,1.2-1.7C50.6,44.3,50.1,43.6,49.4,43.4z
			 M49,45.5c-4.2,1.3-8.5,1.9-12.9,2c-5.3,0-7.3-1.4-7.4-1.5L28,45.5l-0.3,0.9c-0.6,1.4-2,2.2-3.5,2.1c-0.6,0-1.1-0.1-1.7-0.3
			c-1.9-0.4-3.4-1.9-3.9-3.8h0.5c0.9,0,1.8-0.3,2.5-0.9c0.8-0.9,1.9-1.5,3-1.6c0.5,0,1,0.2,1.5,0.5c0.6,0.3,1.1,0.8,1.5,1.4l0.4,0.6
			l0.6-0.5c0,0,2-1.5,7.2-1.5c4.5,0.1,8.9,0.9,13.1,2.2c0.2,0.1,0.2,0.2,0.2,0.4C49.1,45.3,49,45.5,49,45.5z"/>
		<rect x="38" y="44.4" width="1.4" height="1.4"/>
		<rect x="34.7" y="44.4" width="1.4" height="1.4"/>
	</g>
</g>
</svg>
