<svg xmlns="http://www.w3.org/2000/svg" viewBox="0 0 78.37 59.1"><title>responsive-design</title><g id="Layer_2" data-name="Layer 2"><g id="Layer_1-2" data-name="Layer 1"><polygon points="52.52 23.93 50.73 23.93 50.73 32.66 59.46 32.66 59.46 30.87 53.84 30.87 60.3 24.29 59.1 22.97 52.52 29.55 52.52 23.93"/><rect x="63.49" y="18.06" width="1.79" height="1.79" transform="translate(5.45 51.08) rotate(-45)"/><rect x="60.81" y="20.69" width="1.79" height="1.79" transform="translate(2.81 49.95) rotate(-45)"/><polygon points="46.9 17.59 53.48 11.01 53.48 16.75 55.27 16.75 55.27 8.02 46.54 8.02 46.54 9.81 52.16 9.81 45.7 16.27 46.9 17.59"/><rect x="40.65" y="20.79" width="1.79" height="1.79" transform="translate(-3.17 35.73) rotate(-45)"/><rect x="43.42" y="18.09" width="1.79" height="1.79" transform="translate(-0.44 36.9) rotate(-45)"/><rect x="14.48" y="20.7" width="5.98" height="1.79"/><rect x="10.89" y="20.7" width="1.79" height="1.79"/><path d="M18.18,54.31H12.56a1,1,0,1,0,0,1.91h5.62a.94.94,0,0,0,1-1C19,54.67,18.66,54.31,18.18,54.31Z"/><path d="M75.13,0h-56a3.34,3.34,0,0,0-3.35,3.35V17.83H3.35A3.34,3.34,0,0,0,0,21.18V55.75A3.34,3.34,0,0,0,3.35,59.1H27.28a3.34,3.34,0,0,0,3.35-3.35V44.86h7.9v5H34.46v1.79H59.82V49.89H55.75v-5H75a3.34,3.34,0,0,0,3.35-3.35V3.23A3.14,3.14,0,0,0,75.13,0ZM17.71,3.23a1.58,1.58,0,0,1,1.56-1.56h56a1.58,1.58,0,0,1,1.56,1.56V38.4H30.63V20.94a3.34,3.34,0,0,0-3.35-3.35H17.71ZM3.35,19.5H27.28a1.58,1.58,0,0,1,1.56,1.56v2.63H1.91V21.06A1.42,1.42,0,0,1,3.35,19.5Zm25.48,6v26H1.91v-26ZM27.28,57.07H3.35a1.48,1.48,0,0,1-1.44-1.56V53.12H28.83v2.39A1.51,1.51,0,0,1,27.28,57.07Zm26.8-7.42H40.32v-5H54.08Zm21.06-6.7H30.63V40.32H76.69v1.2A1.57,1.57,0,0,1,75.13,42.95Z"/></g></g></svg>