<?xml version="1.0" encoding="utf-8"?>
<!-- Generator: Adobe Illustrator 21.0.2, SVG Export Plug-In . SVG Version: 6.00 Build 0)  -->
<svg version="1.1" id="Layer_1" xmlns="http://www.w3.org/2000/svg" xmlns:xlink="http://www.w3.org/1999/xlink" x="0px" y="0px"
	 viewBox="0 0 58 58" style="enable-background:new 0 0 58 58;" xml:space="preserve">
<title>retina-ready</title>
<g id="Layer_2">
	<g id="Layer_1-2">
		<path d="M4.8,29l4.7,4.8c10.4,10.8,27.6,11.1,38.4,0.6c0.2-0.2,0.4-0.4,0.6-0.6l4.7-4.8l-4.7-4.8c-10.4-10.8-27.6-11.1-38.4-0.6
			c-0.2,0.2-0.4,0.4-0.6,0.6L4.8,29z M29,43.9c-7.8,0-15.4-3.2-20.8-8.8l-5.3-5.4c-0.3-0.3-0.3-0.9,0-1.2L8.2,23
			c11.1-11.5,29.4-11.8,40.9-0.7c0.2,0.2,0.5,0.5,0.7,0.7l5.3,5.4c0.3,0.3,0.3,0.9,0,1.2l-5.3,5.4C44.3,40.7,36.8,43.9,29,43.9z"/>
		<path d="M4.8,29l2.3,2.4c4.5,4.7,15.6,6.3,21.9,6.3s17.4-1.7,21.9-6.3l2.3-2.4l-2.3-2.4c-4.5-4.7-15.6-6.3-21.9-6.3
			s-17.4,1.7-21.9,6.3L4.8,29z M29,39.5c-5.7,0-17.9-1.5-23.1-6.9l-2.9-3c-0.3-0.3-0.3-0.9,0-1.2l2.9-3c5.3-5.4,17.4-6.9,23.1-6.9
			s17.9,1.4,23.1,6.9l2.9,3c0.3,0.3,0.3,0.9,0,1.2l-2.9,3C46.9,38.1,34.7,39.5,29,39.5L29,39.5z"/>
		<path d="M22,29.9c-0.5,0-0.9-0.4-0.9-0.9c0-4.4,3.5-7.9,7.9-7.9c0.5,0.1,0.8,0.6,0.6,1.1c-0.1,0.3-0.3,0.6-0.6,0.6
			c-3.4,0-6.1,2.8-6.1,6.1C22.9,29.5,22.5,29.9,22,29.9"/>
		<path d="M33.8,39.3c-0.5-0.1-0.9-0.5-0.8-1c0-0.3,0.2-0.5,0.4-0.7c4.8-2.4,6.7-8.2,4.3-12.9c-0.9-1.9-2.5-3.4-4.3-4.3
			c-0.4-0.3-0.4-0.9-0.1-1.3c0.2-0.2,0.6-0.4,0.9-0.3c5.6,2.8,7.9,9.6,5.1,15.3c-1.1,2.2-2.9,4-5,5.1C34,39.2,33.9,39.2,33.8,39.3"
			/>
		<path d="M24.2,39.3c-0.1,0-0.3,0-0.4-0.1c-5.6-2.8-7.8-9.7-5-15.3c1.1-2.2,2.9-3.9,5.1-5c0.5-0.1,1,0.2,1.1,0.7
			c0.1,0.3,0,0.7-0.3,0.9c-4.8,2.4-6.7,8.1-4.3,12.9c0.9,1.9,2.4,3.4,4.3,4.3c0.4,0.3,0.5,0.8,0.3,1.3
			C24.8,39.1,24.5,39.3,24.2,39.3"/>
		<path d="M3.6,11.5c-0.5,0-0.9-0.4-0.9-0.9v-7c0-0.5,0.4-0.9,0.9-0.9h7c0.5-0.1,1,0.2,1.1,0.6s-0.2,1-0.6,1.1c-0.2,0-0.3,0-0.5,0
			H4.5v6.1C4.5,11.1,4,11.5,3.6,11.5"/>
		<path d="M54.4,11.5c-0.5,0-0.9-0.4-0.9-0.9V4.5h-6.1c-0.5,0.1-1-0.2-1.1-0.6s0.2-1,0.6-1.1c0.2,0,0.3,0,0.5,0h7
			c0.5,0,0.9,0.4,0.9,0.9v7C55.3,11.1,54.9,11.5,54.4,11.5"/>
		<path d="M54.4,55.3h-7c-0.5,0.1-1-0.2-1.1-0.6c-0.1-0.5,0.2-1,0.6-1.1c0.2,0,0.3,0,0.5,0h6.1v-6.1c-0.1-0.5,0.2-1,0.6-1.1
			s1,0.2,1.1,0.6c0,0.2,0,0.3,0,0.5v7C55.3,54.9,54.9,55.3,54.4,55.3"/>
		<path d="M10.6,55.3h-7c-0.5,0-0.9-0.4-0.9-0.9v-7c0.1-0.5,0.6-0.8,1.1-0.6c0.3,0.1,0.6,0.3,0.6,0.6v6.1h6.1c0.5-0.1,1,0.2,1.1,0.6
			s-0.2,1-0.6,1.1C10.9,55.3,10.7,55.3,10.6,55.3"/>
		<path d="M29,33.4c-0.5,0-0.9-0.4-0.9-0.9v-5.3c-0.1-0.5,0.2-1,0.6-1.1c0.5-0.1,1,0.2,1.1,0.6c0,0.2,0,0.3,0,0.5v5.3
			C29.8,33,29.4,33.4,29,33.4"/>
		<path d="M31.6,30.8h-5.3c-0.5,0.1-1-0.2-1.1-0.6c-0.1-0.5,0.2-1,0.6-1.1c0.2,0,0.3,0,0.5,0h5.3c0.5,0.1,0.8,0.6,0.6,1.1
			C32.2,30.4,31.9,30.7,31.6,30.8"/>
	</g>
</g>
</svg>
