<?xml version="1.0" encoding="utf-8"?>
<!-- Generator: Adobe Illustrator 21.0.2, SVG Export Plug-In . SVG Version: 6.00 Build 0)  -->
<svg version="1.1" id="Layer_1" xmlns="http://www.w3.org/2000/svg" xmlns:xlink="http://www.w3.org/1999/xlink" x="0px" y="0px"
	 viewBox="0 0 63.5 57.9" style="enable-background:new 0 0 63.5 57.9;" xml:space="preserve">
<style type="text/css">
	.st0{fill:#010101;}
	.st1{clip-path:url(#SVGID_2_);}
	.st2{clip-path:url(#SVGID_4_);}
	.st3{clip-path:url(#SVGID_6_);}
</style>
<title>special-features</title>
<g id="Layer_2">
	<g id="Layer_1-2">
		<path class="st0" d="M56.3,6.1c0.8,0,1.4,0.6,1.4,1.4s-0.6,1.4-1.4,1.4H21.1c-0.8,0-1.4-0.6-1.4-1.4s0.6-1.4,1.4-1.4l0,0L56.3,6.1
			"/>
		<path class="st0" d="M8.6,5.2l0.2,0.8l0.4,1.3h2.2l-0.6,0.5L9.7,8.6l0.4,1.3l0.2,0.8l-0.6-0.5L8.6,9.4l-1.1,0.8l-0.6,0.5l0.2-0.8
			l0.4-1.3L6.4,7.7L5.8,7.3h2.2l0.4-1.3L8.6,5.2"/>
		<path class="st0" d="M56.3,34.7c0.8,0,1.4,0.6,1.4,1.4c0,0.8-0.6,1.4-1.4,1.4H21.1c-0.8,0-1.4-0.6-1.4-1.4c0-0.8,0.6-1.4,1.4-1.4
			H56.3"/>
		<g>
			<defs>
				<polyline id="SVGID_1_" points="10.4,34.4 10.4,37.8 6.9,37.8 6.9,34.4 10.4,34.4 				"/>
			</defs>
			<clipPath id="SVGID_2_">
				<use xlink:href="#SVGID_1_"  style="overflow:visible;"/>
			</clipPath>
			<g class="st1">
				<polygon class="st0" points="6.3,38.5 6.2,33.7 11,33.7 11,38.5 11,38.5 				"/>
			</g>
		</g>
		<path class="st0" d="M56.3,49.1c0.8,0,1.4,0.6,1.4,1.4c0,0.8-0.6,1.4-1.4,1.4l0,0H21.1c-0.8,0-1.4-0.6-1.4-1.4
			c0-0.8,0.6-1.4,1.4-1.4c0,0,0,0,0,0L56.3,49.1"/>
		<g>
			<defs>
				<polyline id="SVGID_3_" points="10.4,48.5 10.4,51.9 6.9,51.9 6.9,48.5 10.4,48.5 				"/>
			</defs>
			<clipPath id="SVGID_4_">
				<use xlink:href="#SVGID_3_"  style="overflow:visible;"/>
			</clipPath>
			<g class="st2">
				<polygon class="st0" points="6.3,52.6 6.2,47.8 11,47.8 11,52.6 11,52.6 				"/>
			</g>
		</g>
		<path class="st0" d="M56.3,20.6c0.8,0,1.4,0.6,1.4,1.4s-0.6,1.4-1.4,1.4H21.1c-0.8,0-1.4-0.6-1.4-1.4s0.6-1.4,1.4-1.4H56.3"/>
		<g>
			<defs>
				<polyline id="SVGID_5_" points="10.4,20.3 10.4,23.7 6.9,23.7 6.9,20.3 10.4,20.3 				"/>
			</defs>
			<clipPath id="SVGID_6_">
				<use xlink:href="#SVGID_5_"  style="overflow:visible;"/>
			</clipPath>
			<g class="st3">
				<polygon class="st0" points="6.3,24.4 6.2,19.6 11,19.6 11,24.4 11,24.4 				"/>
			</g>
		</g>
	</g>
</g>
</svg>
